<svg width="18" height="19" viewBox="0 0 18 19" fill="none" xmlns="http://www.w3.org/2000/svg">
<path d="M16.8759 9.68454C16.8759 9.00107 16.8223 8.50232 16.7063 7.98511H9.16162V11.0699H13.5902C13.5009 11.8366 13.0188 12.9911 11.9473 13.7669L11.9323 13.8701L14.3178 15.7818L14.483 15.7989C16.0009 14.3488 16.8759 12.2152 16.8759 9.68454" fill="#4285F4"/>
<path d="M9.16098 17.8126C11.3306 17.8126 13.152 17.0736 14.4824 15.7991L11.9467 13.7671C11.2681 14.2566 10.3574 14.5983 9.16098 14.5983C7.03601 14.5983 5.23246 13.1483 4.58954 11.144L4.4953 11.1523L2.01486 13.1381L1.98242 13.2314C3.30383 15.9468 6.01811 17.8126 9.16098 17.8126Z" fill="#34A853"/>
<path d="M4.58998 11.1439C4.42034 10.6267 4.32216 10.0725 4.32216 9.49988C4.32216 8.92721 4.42034 8.37306 4.58105 7.85585L4.57656 7.7457L2.06503 5.72803L1.98285 5.76846C1.43824 6.89528 1.12573 8.16065 1.12573 9.49988C1.12573 10.8391 1.43824 12.1044 1.98285 13.2312L4.58998 11.1439" fill="#FBBC05"/>
<path d="M9.16103 4.40164C10.6699 4.40164 11.6878 5.07588 12.2682 5.63932L14.536 3.34875C13.1432 2.00952 11.3306 1.1875 9.16103 1.1875C6.01814 1.1875 3.30384 3.05318 1.98242 5.76857L4.58063 7.85596C5.23248 5.85173 7.03604 4.40164 9.16103 4.40164" fill="#EB4335"/>
</svg>
